<svg xmlns="http://www.w3.org/2000/svg" width="26" height="26" viewBox="0 0 26 26" fill="none">
  <g clip-path="url(#clip0_1_297)">
    <path d="M25.7623 24.6046L17.8675 16.6615C19.339 14.8992 20.2258 12.6319 20.2258 10.1562C20.2258 4.54716 15.6787 0 10.0696 0C4.46049 0 -0.0866699 4.54716 -0.0866699 10.1562C-0.0866699 15.7653 4.46049 20.3125 10.0696 20.3125C12.618 20.3125 14.9458 19.3716 16.7292 17.8206L24.6129 25.7538C24.9302 26.0711 25.4449 26.0711 25.7622 25.7538C26.0791 25.4365 26.0791 24.9222 25.7622 24.6046H25.7623ZM10.0696 18.7009C5.35058 18.7009 1.52492 14.8752 1.52492 10.1562C1.52492 5.43725 5.35058 1.61159 10.0696 1.61159C14.7886 1.61159 18.6142 5.43725 18.6142 10.1562C18.6142 14.8752 14.7886 18.7009 10.0696 18.7009Z" fill="#CCCCCC"/>
  </g>
  <defs>
    <clipPath id="clip0_1_297">
      <rect width="26" height="26" fill="white"/>
    </clipPath>
  </defs>
</svg>